<?xml version="1.0" encoding="UTF-8"?>
<svg version="1.1" xmlns="http://www.w3.org/2000/svg" width="50" height="50">
<path d="M0 0 C2.35716006 1.10192442 3.96696094 2.33186538 6 4 C6.5775 3.71125 7.155 3.4225 7.75 3.125 C8.86375 2.568125 8.86375 2.568125 10 2 C10.61488281 1.65453125 11.22976562 1.3090625 11.86328125 0.953125 C15.50690523 -0.67218441 19.09329701 -0.56507668 23 0 C26.12068856 1.79273598 27.54965052 3.24259405 29.375 6.3125 C30.24818674 10.06720296 30.07611346 12.26525329 29 16 C27.02098869 19.00918159 24.53475515 21.45313615 22 24 C21.43861328 24.56831543 20.87722656 25.13663086 20.29882812 25.72216797 C16.226257 29.84241488 12.12210703 33.92934784 8 38 C2.45523758 35.58652732 -1.42289404 31.10712587 -5.6875 26.9375 C-7.00717773 25.70483398 -7.00717773 25.70483398 -8.35351562 24.44726562 C-13.01385168 19.88035188 -16.00434127 16.63305535 -16.27954102 9.95507812 C-15.79670531 6.57818 -14.20506654 4.51132578 -12 2 C-7.97307426 -0.68461716 -4.73355175 -0.6923222 0 0 Z " fill="#F55174" transform="translate(18,6)"/>
<path d="M0 0 C4.25314786 1.67642324 7.12101814 4.7175909 10.3125 7.875 C10.87517578 8.40480469 11.43785156 8.93460938 12.01757812 9.48046875 C13.61328125 11.0546875 13.61328125 11.0546875 16 14 C15.72027572 17.31988556 14.39819944 18.96291316 12.05859375 21.234375 C11.47529297 21.80800781 10.89199219 22.38164063 10.29101562 22.97265625 C9.67935547 23.55917969 9.06769531 24.14570312 8.4375 24.75 C7.82197266 25.35199219 7.20644531 25.95398438 6.57226562 26.57421875 C5.05485187 28.05634381 3.52829404 29.5290967 2 31 C-0.93230193 29.67879172 -2.98664899 28.25361803 -5.234375 25.9609375 C-5.80800781 25.38085938 -6.38164062 24.80078125 -6.97265625 24.203125 C-7.55917969 23.59984375 -8.14570313 22.9965625 -8.75 22.375 C-9.35199219 21.76398437 -9.95398438 21.15296875 -10.57421875 20.5234375 C-12.05405305 19.02011376 -13.52764676 17.51065144 -15 16 C-10.30233025 10.33870569 -5.25276628 5.14771096 0 0 Z " fill="#EB0305" transform="translate(24,13)"/>
</svg>
